<?xml version="1.0" encoding="utf-8"?>
<svg version="1.1" xmlns="http://www.w3.org/2000/svg" xmlns:xlink="http://www.w3.org/1999/xlink" x="0px" y="0px" viewBox="0 0 200 200" enable-background="new 0 0 200 200" xml:space="preserve">
<rect width="200" height="200" fill="#131c24" />
<path fill="#e56f37" d="m53.943 40v92.96h15.211v-79.776h39.211c2.3662 0 4.7325 0.50739 6.9297 1.5215 2.1972 1.1831 4.057 2.5345 5.5781 4.2246 1.5211 1.8591 2.7047 4.0557 3.7188 6.4218 0.84507 2.5352 1.3516 5.2392 1.3516 7.9434 0 2.8732-0.50739 5.4092-1.5215 7.7754-1.0141 2.3661-2.1966 4.5638-3.8867 6.2539-1.6901 1.8592-3.5489 3.3804-5.7461 4.3945-2.3662 1.0141-4.9023 1.5215-7.4375 1.5215h-22.985v12.338h27.719c2.7042 0 5.0714 0.67537 7.4375 1.6894 2.1972 1.1831 4.056 2.7034 5.7461 4.5625 1.6901 2.0282 2.8726 4.2265 3.8867 6.7617s1.5215 5.0692 1.5215 7.7734-0.50739 5.4092-1.5215 7.7754c-1.1831 2.5352-2.5345 4.7326-4.2246 6.5918-1.8592 1.8592-4.0568 3.3804-6.2539 4.3945-2.3662 1.1831-5.0692 1.6895-7.7734 1.6895h-56.957v13.184h56.959c4.7324 0 9.2942-0.67616 13.52-2.1973 4.2254-1.352 7.945-3.5497 11.156-6.2539 3.2113-2.7042 5.7463-5.9154 7.6055-9.8027 1.8592-3.7183 2.873-7.9434 2.873-12.676 0-7.4366-2.0277-13.859-6.084-19.268-4.0563-5.4084-9.466-9.296-16.227-11.324 5.4084-2.3662 9.6335-6.2538 12.676-11.324 3.0423-4.9014 4.5644-10.478 4.5644-16.563 0-3.7183-0.67718-7.268-2.0293-10.986-1.3521-3.7183-3.211-6.9295-5.4082-9.8028-2.3662-2.8732-5.2389-5.2385-8.6191-7.0977-3.3803-1.6901-7.2679-2.7051-11.324-2.7051z" />
</svg>